{"glyphs":{":":{"x_min":0,"x_max":333,"ha":333,"o":"m 167 75 q 184 75 196 62 q 207 50 207 30 q 207 11 196 -2 q 184 -14 167 -14 q 149 -14 138 -2 q 126 11 126 30 q 126 49 138 62 q 150 75 167 75 z m 167 355 q 184 355 196 343 q 207 331 207 311 q 207 292 196 279 q 184 266 167 266 q 150 266 138 279 q 126 292 126 311 q 126 330 138 343 q 149 355 167 355 z"},"$":{"x_min":0,"x_max":667,"ha":667,"o":"m 362 247 l 362 45 q 432 49 473 79 q 514 108 514 153 q 514 196 473 221 q 433 247 362 247 z m 87 77 l 124 131 q 167 98 212 77 q 258 57 305 50 l 305 250 q 209 255 159 289 q 109 323 109 382 q 109 443 163 483 q 218 523 305 525 l 305 605 l 362 605 l 362 520 q 417 511 464 491 q 510 472 553 440 l 519 389 q 481 418 443 436 q 404 454 362 461 l 362 307 q 465 305 523 263 q 581 221 581 151 q 581 81 520 33 q 458 -14 362 -14 l 362 -128 l 305 -128 l 305 -11 q 243 -4 190 17 q 136 39 87 77 z m 305 310 l 305 465 q 247 462 211 440 q 176 417 176 385 q 176 353 208 334 q 240 315 305 310 z"},"?":{"x_min":0,"x_max":361,"ha":361,"o":"m 125 131 l 125 218 q 125 242 133 260 q 141 278 166 304 l 249 387 q 259 397 263 406 q 267 416 267 430 q 267 457 245 473 q 224 490 189 490 q 149 490 123 471 q 97 451 89 415 l 27 438 q 42 494 83 522 q 124 551 190 551 q 257 551 296 517 q 335 483 335 424 q 335 401 326 381 q 317 362 297 343 l 212 260 q 202 250 197 235 q 192 221 192 201 l 192 131 z m 160 75 q 177 75 189 62 q 201 49 201 30 q 201 11 189 -2 q 177 -14 160 -14 q 143 -14 131 -2 q 119 11 119 30 q 119 49 131 62 q 143 75 160 75 z"},"<":{"x_min":0,"x_max":833,"ha":833,"o":"m 704 501 l 205 298 l 704 96 l 704 43 l 129 278 l 129 318 l 704 554 z"},"'":{"x_min":0,"x_max":144,"ha":144,"o":"m 97 700 l 97 430 l 48 430 l 48 700 z"},"=":{"x_min":0,"x_max":833,"ha":833,"o":"m 709 231 l 709 183 l 124 183 l 124 231 z m 709 413 l 709 365 l 124 365 l 124 413 z"},"a":{"x_min":0,"x_max":449,"ha":449,"o":"m 142 161 l 305 161 l 224 321 z m -9 0 l 203 417 l 244 417 l 458 0 l 388 0 l 334 106 l 114 106 l 60 0 z"},"L":{"x_min":0,"x_max":500,"ha":500,"o":"m 81 0 l 81 539 l 148 539 l 148 62 l 500 62 l 500 0 z"},"3":{"x_min":0,"x_max":667,"ha":667,"o":"m 99 156 q 163 98 220 73 q 278 48 347 48 q 431 48 487 81 q 542 114 542 160 q 542 206 500 229 q 458 251 371 251 l 348 251 l 348 313 q 354 312 361 312 q 369 312 382 312 q 445 312 474 329 q 503 345 503 381 q 503 417 467 439 q 432 462 372 462 q 319 462 267 443 q 215 425 163 387 l 123 442 q 178 483 242 504 q 306 525 375 525 q 465 525 518 486 q 572 446 572 381 q 572 352 560 328 q 549 304 525 286 q 568 267 590 236 q 612 205 612 162 q 612 88 538 37 q 464 -14 351 -14 q 261 -14 190 15 q 119 43 57 105 z"},";":{"x_min":0,"x_max":333,"ha":333,"o":"m 167 355 q 184 355 196 343 q 207 331 207 311 q 207 292 196 279 q 184 266 167 266 q 150 266 138 279 q 126 292 126 311 q 126 330 138 343 q 149 355 167 355 z m 121 -85 q 136 -63 146 -42 q 157 -21 164 0 l 160 0 q 145 0 135 12 q 125 25 125 44 q 125 65 137 78 q 149 92 167 92 q 188 92 200 74 q 213 56 213 26 q 213 -1 194 -33 q 176 -65 139 -102 z"},"J":{"x_min":0,"x_max":537,"ha":537,"o":"m 19 232 l 86 232 l 86 148 q 86 96 124 72 q 163 49 249 49 q 334 49 365 78 q 396 107 396 190 l 396 539 l 463 539 l 463 172 q 463 72 411 29 q 358 -14 237 -14 q 126 -14 73 25 q 19 65 19 146 z"},"V":{"x_min":0,"x_max":549,"ha":549,"o":"m 295 0 l 253 0 l -7 539 l 66 539 l 274 107 l 482 539 l 556 539 z"},"\"":{"x_min":0,"x_max":278,"ha":278,"o":"m 231 700 l 231 430 l 181 430 l 181 700 z m 97 700 l 97 430 l 48 430 l 48 700 z"},"7":{"x_min":0,"x_max":667,"ha":667,"o":"m 184 0 l 499 450 l 104 450 l 104 513 l 625 513 l 263 0 z"},"S":{"x_min":0,"x_max":597,"ha":597,"o":"m 30 81 l 69 139 q 126 95 188 71 q 250 48 310 48 q 385 48 431 80 q 478 111 478 161 q 478 201 445 226 q 411 252 352 257 q 338 258 311 260 q 178 269 130 291 q 92 309 73 338 q 53 366 53 402 q 53 467 111 509 q 169 551 262 551 q 330 551 395 529 q 461 506 520 463 l 481 407 q 431 447 376 468 q 321 488 263 488 q 202 488 163 464 q 123 440 123 405 q 123 391 129 379 q 136 367 149 357 q 182 332 292 325 q 343 322 371 319 q 453 310 501 266 q 549 223 549 159 q 549 83 483 35 q 417 -14 311 -14 q 230 -14 161 9 q 92 33 30 81 z"},"}":{"x_min":0,"x_max":500,"ha":500,"o":"m 271 540 l 271 422 q 271 347 299 316 q 327 285 394 285 q 397 285 405 286 q 412 286 416 286 l 416 233 q 412 233 405 233 q 397 234 394 234 q 327 234 299 203 q 271 172 271 97 l 271 -22 q 271 -131 237 -167 q 203 -202 107 -202 l 84 -202 l 84 -150 l 103 -150 q 167 -150 189 -126 q 211 -102 211 -27 l 211 91 q 211 174 232 209 q 253 244 307 259 q 253 274 232 309 q 211 344 211 427 l 211 545 q 211 622 189 646 q 167 670 106 670 q 103 670 95 669 q 88 669 84 669 l 84 721 l 107 721 q 203 721 237 685 q 271 649 271 540 z"},"Z":{"x_min":0,"x_max":509,"ha":509,"o":"m -2 0 l 362 477 l 29 477 l 29 539 l 484 539 l 128 62 l 482 62 l 482 0 z"},"x":{"x_min":0,"x_max":451,"ha":451,"o":"m 10 0 l 185 209 l 12 417 l 91 417 l 225 257 l 359 417 l 439 417 l 265 211 l 441 0 l 362 0 l 225 163 l 87 0 z"},")":{"x_min":0,"x_max":273,"ha":273,"o":"m 83 551 q 152 488 184 420 q 216 352 216 269 q 216 186 184 117 q 152 49 83 -14 l 51 24 q 103 68 127 127 q 151 187 151 269 q 151 351 127 410 q 103 469 51 513 z"},"&":{"x_min":0,"x_max":618,"ha":618,"o":"m 437 121 l 271 316 q 205 288 171 249 q 138 211 138 163 q 138 112 174 80 q 209 48 267 48 q 311 48 353 66 q 396 84 437 121 z m 580 174 q 569 158 556 144 q 542 129 527 115 l 623 4 l 537 4 l 477 72 q 422 26 373 6 q 323 -15 268 -15 q 177 -15 122 33 q 67 81 67 160 q 67 224 106 273 q 146 323 229 364 l 81 539 l 435 539 l 472 480 l 219 480 l 483 169 q 504 190 516 203 q 527 216 537 229 z"},"_":{"x_min":0,"x_max":500,"ha":500,"o":"m 500 -187 l 500 -236 l 0 -236 l 0 -187 z"},"v":{"x_min":0,"x_max":472,"ha":472,"o":"m 253 0 l 219 0 l 10 417 l 79 417 l 236 105 l 390 417 l 462 417 z"},"O":{"x_min":0,"x_max":634,"ha":634,"o":"m 317 49 q 408 49 467 111 q 527 173 527 268 q 527 364 468 426 q 408 488 317 488 q 226 488 167 426 q 107 363 107 268 q 107 173 167 111 q 226 49 317 49 z m 317 -14 q 196 -14 117 66 q 38 146 38 268 q 38 391 117 471 q 196 551 317 551 q 438 551 518 471 q 597 391 597 268 q 597 146 518 66 q 438 -14 317 -14 z"},"(":{"x_min":0,"x_max":273,"ha":273,"o":"m 190 551 l 222 513 q 170 469 146 410 q 122 351 122 269 q 122 187 146 127 q 170 68 222 24 l 190 -14 q 121 49 89 117 q 57 186 57 269 q 57 352 89 420 q 121 488 190 551 z"},"C":{"x_min":0,"x_max":604,"ha":604,"o":"m 511 172 l 565 132 q 528 62 463 24 q 399 -14 317 -14 q 196 -14 117 66 q 38 146 38 268 q 38 391 117 471 q 196 551 317 551 q 392 551 453 518 q 515 485 553 425 l 497 385 q 472 433 424 460 q 376 488 317 488 q 226 488 167 426 q 107 363 107 268 q 107 173 167 111 q 226 49 317 49 q 380 49 430 80 q 479 111 511 172 z"},"W":{"x_min":0,"x_max":720,"ha":720,"o":"m 170 0 l -6 539 l 60 539 l 194 123 l 331 539 l 391 539 l 528 124 l 662 539 l 726 539 l 551 0 l 502 0 l 360 434 l 219 0 z"},"A":{"x_min":0,"x_max":588,"ha":588,"o":"m 174 208 l 411 208 l 292 447 z m 0 0 l 264 539 l 320 539 l 587 0 l 514 0 l 441 145 l 143 145 l 72 0 z"},"f":{"x_min":0,"x_max":470,"ha":470,"o":"m 136 192 l 136 0 l 71 0 l 71 417 l 456 417 l 456 356 l 136 356 l 136 252 l 343 252 l 343 192 z"},"Q":{"x_min":0,"x_max":634,"ha":634,"o":"m 324 50 l 291 119 l 366 119 l 393 62 q 456 87 491 141 q 527 196 527 268 q 527 363 467 426 q 408 488 317 488 q 226 488 167 426 q 107 363 107 268 q 107 173 166 112 q 225 50 315 50 z m 353 -12 q 345 -13 336 -14 q 327 -14 311 -14 q 195 -14 116 66 q 38 147 38 268 q 38 391 117 471 q 196 551 317 551 q 438 551 518 471 q 597 391 597 268 q 597 176 551 107 q 505 38 421 3 l 457 -71 l 382 -71 z"},"w":{"x_min":0,"x_max":613,"ha":613,"o":"m 150 0 l 9 417 l 73 417 l 175 112 l 280 417 l 334 417 l 439 112 l 541 417 l 605 417 l 465 0 l 418 0 l 307 321 l 196 0 z"},"-":{"x_min":0,"x_max":257,"ha":257,"o":"m 23 298 l 234 298 l 234 239 l 23 239 z"},"E":{"x_min":0,"x_max":546,"ha":546,"o":"m 81 0 l 81 539 l 505 539 l 505 477 l 148 477 l 148 319 l 364 319 l 364 257 l 148 257 l 148 62 l 527 62 l 527 0 z"},"s":{"x_min":0,"x_max":495,"ha":495,"o":"m 35 53 l 67 108 q 110 79 161 63 q 211 47 258 47 q 313 47 348 70 q 382 92 382 128 q 382 164 351 181 q 319 198 252 200 q 138 202 96 227 q 53 251 53 309 q 53 363 100 396 q 146 428 225 428 q 279 428 329 413 q 380 398 427 368 l 394 314 q 355 340 310 355 q 265 369 224 369 q 177 369 148 353 q 119 336 119 309 q 119 281 148 270 q 177 258 249 258 q 349 258 399 224 q 450 190 450 124 q 450 65 399 26 q 347 -13 265 -13 q 205 -13 145 4 q 85 21 35 53 z"},">":{"x_min":0,"x_max":833,"ha":833,"o":"m 704 318 l 704 278 l 129 43 l 129 96 l 628 298 l 129 501 l 129 554 z"},"l":{"x_min":0,"x_max":449,"ha":449,"o":"m 71 0 l 71 417 l 136 417 l 136 60 l 446 60 l 446 0 z"},"8":{"x_min":0,"x_max":667,"ha":667,"o":"m 146 159 q 146 109 197 79 q 247 49 333 49 q 418 49 469 79 q 519 109 519 159 q 519 210 476 233 q 433 256 333 256 q 233 256 189 233 q 146 210 146 159 z m 497 292 q 543 270 566 238 q 589 205 589 160 q 589 81 520 33 q 451 -14 333 -14 q 214 -14 145 33 q 76 80 76 159 q 76 204 100 238 q 123 271 169 292 q 141 310 126 334 q 112 358 112 386 q 112 449 171 487 q 231 524 333 524 q 435 524 495 487 q 554 449 554 386 q 554 358 540 334 q 525 310 497 292 z m 484 389 q 484 421 443 442 q 402 462 333 462 q 264 462 223 441 q 183 421 183 387 q 183 355 222 337 q 262 319 333 319 q 406 319 445 337 q 484 355 484 389 z"},"\\":{"x_min":0,"x_max":278,"ha":278,"o":"m 238 -93 l -19 551 l 40 551 l 297 -93 z"},"e":{"x_min":0,"x_max":502,"ha":502,"o":"m 71 0 l 71 417 l 462 417 l 462 356 l 136 356 l 136 252 l 350 252 l 350 192 l 136 192 l 136 60 l 480 60 l 480 0 z"},"b":{"x_min":0,"x_max":544,"ha":544,"o":"m 326 356 l 137 356 l 137 258 l 327 258 q 358 258 374 270 q 390 283 390 307 q 390 332 374 344 q 358 356 326 356 z m 348 197 l 137 197 l 137 60 l 348 60 q 382 60 401 78 q 420 96 420 129 q 420 161 401 179 q 382 197 348 197 z m 72 0 l 72 416 l 328 416 q 392 416 424 390 q 457 364 457 313 q 457 288 447 268 q 437 248 417 236 q 452 216 469 188 q 487 160 487 125 q 487 67 448 33 q 409 0 341 0 z"},"%":{"x_min":0,"x_max":843,"ha":843,"o":"m 663 44 q 702 44 728 72 q 754 100 754 141 q 754 183 728 211 q 702 239 663 239 q 625 239 599 211 q 573 183 573 141 q 573 99 599 72 q 625 44 663 44 z m 663 -14 q 597 -14 553 30 q 510 74 510 141 q 510 208 553 252 q 597 296 663 296 q 730 296 773 252 q 817 208 817 141 q 817 74 773 30 q 729 -14 663 -14 z m 523 513 l 593 513 l 319 0 l 249 0 z m 179 272 q 218 272 244 300 q 270 329 270 370 q 270 412 244 439 q 218 467 179 467 q 140 467 115 439 q 89 412 89 370 q 89 328 115 300 q 141 272 179 272 z m 179 214 q 113 214 69 258 q 25 302 25 369 q 25 436 69 480 q 113 525 179 525 q 246 525 289 481 q 332 437 332 369 q 332 302 289 258 q 245 214 179 214 z"},"m":{"x_min":0,"x_max":593,"ha":593,"o":"m 71 0 l 71 417 l 125 417 l 296 173 l 467 417 l 521 417 l 521 0 l 456 0 l 456 300 l 296 68 l 136 300 l 136 0 z"},"#":{"x_min":0,"x_max":769,"ha":769,"o":"m 476 422 l 346 422 l 299 287 l 429 287 z m 448 710 l 366 474 l 495 474 l 579 710 l 641 710 l 558 474 l 712 474 l 694 422 l 539 422 l 491 287 l 657 287 l 639 234 l 473 234 l 390 0 l 327 0 l 411 234 l 280 234 l 196 0 l 134 0 l 217 234 l 57 234 l 76 287 l 235 287 l 284 422 l 112 422 l 129 474 l 302 474 l 386 710 z"},",":{"x_min":0,"x_max":333,"ha":333,"o":"m 121 -85 q 136 -63 146 -42 q 157 -21 164 0 l 160 0 q 145 0 135 12 q 125 25 125 44 q 125 65 137 78 q 149 92 167 92 q 188 92 200 74 q 213 56 213 26 q 213 -1 194 -33 q 176 -65 139 -102 z"},"n":{"x_min":0,"x_max":507,"ha":507,"o":"m 72 0 l 72 417 l 106 417 l 371 124 l 371 417 l 435 417 l 435 0 l 401 0 l 136 292 l 136 0 z"},"h":{"x_min":0,"x_max":565,"ha":565,"o":"m 136 194 l 136 0 l 71 0 l 71 417 l 136 417 l 136 255 l 429 255 l 429 417 l 494 417 l 494 0 l 429 0 l 429 194 z"},"z":{"x_min":0,"x_max":437,"ha":437,"o":"m 17 0 l 287 356 l 41 356 l 41 417 l 407 417 l 135 60 l 405 60 l 405 0 z"},"B":{"x_min":0,"x_max":653,"ha":653,"o":"m 148 326 l 406 326 q 448 326 471 345 q 493 365 493 401 q 493 439 471 458 q 450 477 406 477 l 148 477 z m 148 62 l 430 62 q 476 62 502 89 q 529 116 529 163 q 529 209 502 237 q 476 264 430 264 l 148 264 z m 81 0 l 81 539 l 400 539 q 479 539 520 505 q 561 471 561 405 q 561 373 548 347 q 536 322 512 306 q 555 281 577 245 q 599 209 599 162 q 599 87 550 44 q 501 0 417 0 z"},"K":{"x_min":0,"x_max":586,"ha":586,"o":"m 81 0 l 81 540 l 148 540 l 148 271 l 457 540 l 545 540 l 327 348 l 578 0 l 497 0 l 279 302 l 148 192 l 148 0 z"},"R":{"x_min":0,"x_max":597,"ha":597,"o":"m 145 299 l 383 299 q 434 299 460 321 q 486 344 486 387 q 486 430 460 453 q 434 477 386 477 l 145 477 z m 78 0 l 78 539 l 387 539 q 466 539 511 499 q 556 459 556 389 q 556 331 521 289 q 486 247 428 237 l 563 0 l 489 0 l 354 236 l 145 236 l 145 0 z"},"T":{"x_min":0,"x_max":417,"ha":417,"o":"m 175 0 l 175 477 l -52 477 l -52 539 l 469 539 l 469 477 l 242 477 l 242 0 z"},"P":{"x_min":0,"x_max":586,"ha":586,"o":"m 145 299 l 383 299 q 434 299 460 321 q 486 344 486 387 q 486 430 460 453 q 434 477 386 477 l 145 477 z m 78 0 l 78 539 l 387 539 q 466 539 511 500 q 556 461 556 393 q 556 323 512 279 q 469 236 396 236 l 145 236 l 145 0 z"},"|":{"x_min":0,"x_max":500,"ha":500,"o":"m 277 764 l 277 -236 l 224 -236 l 224 764 z"},"t":{"x_min":0,"x_max":405,"ha":405,"o":"m 170 0 l 170 359 l -6 359 l -6 417 l 411 417 l 411 359 l 235 359 l 235 0 z"},"M":{"x_min":0,"x_max":715,"ha":715,"o":"m 78 0 l 78 539 l 140 539 l 358 209 l 577 539 l 638 539 l 638 0 l 572 0 l 572 421 l 358 102 l 144 421 l 144 0 z"},"g":{"x_min":0,"x_max":574,"ha":574,"o":"m 354 162 l 354 222 l 526 222 l 526 96 q 490 42 432 15 q 374 -13 297 -13 q 182 -13 108 49 q 35 111 35 207 q 35 303 109 365 q 183 428 297 428 q 369 428 425 403 q 481 378 518 330 l 468 294 q 441 329 396 348 q 351 368 297 368 q 211 368 157 323 q 102 277 102 208 q 102 139 156 93 q 211 48 297 48 q 351 48 396 67 q 442 87 460 117 l 460 162 z"},"j":{"x_min":0,"x_max":447,"ha":447,"o":"m 24 178 l 89 178 l 89 134 q 89 89 118 68 q 146 47 208 47 q 270 47 293 72 q 316 98 316 169 l 316 416 l 381 416 l 381 148 q 381 62 339 24 q 297 -13 200 -13 q 111 -13 67 21 q 24 55 24 125 z"},"i":{"x_min":0,"x_max":211,"ha":211,"o":"m 72 0 l 72 418 l 138 418 l 138 0 z"},"y":{"x_min":0,"x_max":447,"ha":447,"o":"m 191 0 l 191 213 l 1 417 l 85 417 l 223 269 l 359 417 l 446 417 l 255 214 l 255 0 z"},"@":{"x_min":0,"x_max":1000,"ha":1000,"o":"m 634 408 l 663 469 l 709 469 l 641 195 q 636 173 635 164 q 633 155 633 150 q 633 129 647 117 q 661 105 685 105 q 710 105 737 115 q 764 125 788 145 q 835 183 862 245 q 888 307 888 383 q 888 507 792 586 q 695 666 543 666 q 458 666 387 642 q 316 618 259 569 q 187 507 150 427 q 114 347 114 250 q 114 165 143 101 q 172 37 233 -12 q 283 -52 352 -75 q 421 -97 499 -97 q 583 -97 662 -73 q 742 -49 809 -3 l 828 -30 q 756 -84 676 -111 q 596 -138 509 -138 q 416 -138 339 -115 q 263 -93 205 -48 q 129 10 93 86 q 57 162 57 262 q 57 362 99 448 q 141 535 222 602 q 287 655 368 683 q 449 710 544 710 q 623 710 694 688 q 766 667 816 628 q 879 580 911 517 q 943 454 943 380 q 943 296 913 229 q 882 161 824 115 q 790 89 751 75 q 713 61 673 61 q 625 61 602 79 q 579 98 579 135 q 579 137 580 142 q 580 146 580 149 q 555 106 518 84 q 481 61 436 61 q 361 61 322 102 q 283 143 283 221 q 283 333 349 411 q 415 488 510 488 q 556 488 587 468 q 618 448 634 408 z m 591 229 l 621 350 q 612 396 584 421 q 556 447 516 447 q 441 447 392 382 q 343 316 343 217 q 343 163 370 132 q 396 102 444 102 q 496 102 536 137 q 577 172 591 229 z"},".":{"x_min":0,"x_max":333,"ha":333,"o":"m 167 75 q 184 75 196 62 q 207 50 207 30 q 207 11 196 -2 q 184 -14 167 -14 q 149 -14 138 -2 q 126 11 126 30 q 126 49 138 62 q 150 75 167 75 z"},"p":{"x_min":0,"x_max":532,"ha":532,"o":"m 137 243 l 375 243 q 408 243 426 258 q 444 272 444 300 q 444 327 427 341 q 410 356 378 356 l 137 356 z m 137 182 l 137 0 l 72 0 l 72 417 l 375 417 q 439 417 475 386 q 511 356 511 301 q 511 249 476 215 q 440 182 382 182 z"},"X":{"x_min":0,"x_max":549,"ha":549,"o":"m 14 0 l 234 271 l 17 539 l 99 539 l 276 323 l 452 539 l 533 539 l 316 274 l 539 0 l 453 0 l 274 222 l 93 0 z"},"*":{"x_min":0,"x_max":500,"ha":500,"o":"m 249 356 l 180 255 l 137 285 l 215 382 l 101 412 l 119 462 l 227 422 l 227 539 l 274 539 l 272 422 l 381 460 l 398 411 l 283 380 l 362 285 l 318 253 z"},"Y":{"x_min":0,"x_max":454,"ha":454,"o":"m 193 0 l 193 270 l -50 539 l 34 539 l 227 326 l 419 539 l 504 539 l 260 269 l 260 0 z"},"c":{"x_min":0,"x_max":551,"ha":551,"o":"m 512 102 q 477 46 419 16 q 361 -13 287 -13 q 177 -13 106 49 q 35 111 35 207 q 35 303 106 365 q 177 428 287 428 q 355 428 411 403 q 467 377 501 330 l 449 294 q 423 330 381 349 q 339 368 287 368 q 207 368 155 323 q 102 277 102 208 q 102 139 155 94 q 208 48 287 48 q 343 48 385 70 q 428 92 460 138 z"},"!":{"x_min":0,"x_max":333,"ha":333,"o":"m 196 140 l 138 140 l 130 539 l 204 539 z m 167 75 q 184 75 196 62 q 207 50 207 30 q 207 11 196 -2 q 184 -14 167 -14 q 149 -14 138 -2 q 126 11 126 30 q 126 49 138 62 q 150 75 167 75 z"},"/":{"x_min":0,"x_max":278,"ha":278,"o":"m 238 551 l 297 551 l 40 -93 l -19 -93 z"},"[":{"x_min":0,"x_max":273,"ha":273,"o":"m 56 0 l 56 539 l 212 539 l 212 481 l 118 481 l 118 58 l 212 58 l 212 0 z"},"6":{"x_min":0,"x_max":667,"ha":667,"o":"m 133 226 q 142 152 212 100 q 281 49 374 49 q 449 49 499 85 q 550 122 550 173 q 550 226 497 262 q 444 298 367 298 q 309 298 252 281 q 195 263 133 226 z m 549 390 q 505 425 456 444 q 407 462 357 462 q 266 462 206 418 q 146 375 134 300 q 194 332 250 346 q 305 361 365 361 q 477 361 548 308 q 620 255 620 174 q 620 90 552 38 q 485 -14 374 -14 q 236 -14 147 64 q 58 142 58 259 q 58 376 140 451 q 223 525 354 525 q 421 525 478 504 q 534 482 588 437 z"},"r":{"x_min":0,"x_max":542,"ha":542,"o":"m 137 243 l 359 243 q 393 243 410 258 q 428 272 428 300 q 428 327 410 342 q 393 356 359 356 l 137 356 z m 137 182 l 137 0 l 72 0 l 72 416 l 359 416 q 423 416 459 385 q 495 354 495 300 q 495 255 467 223 q 438 190 392 183 l 508 0 l 437 0 l 319 182 z"},"2":{"x_min":0,"x_max":667,"ha":667,"o":"m 117 0 q 117 18 116 39 q 115 61 115 64 q 115 146 149 190 q 183 233 266 263 q 295 273 345 290 q 495 340 495 382 q 495 417 459 439 q 424 462 368 462 q 320 462 269 443 q 219 423 160 382 l 120 434 q 180 480 240 503 q 299 525 362 525 q 452 525 508 484 q 565 443 565 381 q 565 298 378 235 q 362 229 354 227 q 239 188 211 162 q 183 135 183 88 q 183 83 183 78 q 184 73 185 62 l 575 62 l 575 0 z"},"{":{"x_min":0,"x_max":500,"ha":500,"o":"m 417 669 l 399 669 q 335 669 312 645 q 290 621 290 545 l 290 427 q 290 345 269 310 q 248 274 194 259 q 248 244 269 208 q 290 173 290 91 l 290 -27 q 290 -103 312 -127 q 334 -151 395 -151 q 398 -151 406 -150 q 413 -150 417 -150 l 417 -202 l 394 -202 q 298 -202 264 -167 q 230 -131 230 -22 l 230 97 q 230 172 202 203 q 174 234 107 234 q 104 234 96 233 q 89 233 85 233 l 85 286 q 89 286 96 286 q 104 285 107 285 q 174 285 202 316 q 230 347 230 422 l 230 540 q 230 649 264 685 q 298 721 394 721 l 417 721 z"},"9":{"x_min":0,"x_max":667,"ha":667,"o":"m 533 285 q 524 359 454 410 q 385 462 292 462 q 218 462 167 425 q 116 388 116 337 q 116 284 169 248 q 222 212 300 212 q 357 212 414 229 q 470 247 533 285 z m 118 120 q 162 85 211 67 q 260 49 310 49 q 401 49 461 92 q 521 135 533 210 q 474 179 418 164 q 363 150 302 150 q 190 150 118 203 q 46 256 46 337 q 46 420 114 473 q 182 525 293 525 q 431 525 520 447 q 609 369 609 252 q 609 135 527 60 q 444 -14 313 -14 q 246 -14 188 7 q 131 29 78 74 z"}," ":{"x_min":0,"x_max":333,"ha":333,"o":""},"I":{"x_min":0,"x_max":231,"ha":231,"o":"m 82 0 l 82 542 l 150 542 l 150 0 z"},"H":{"x_min":0,"x_max":616,"ha":616,"o":"m 81 0 l 81 539 l 149 539 l 149 326 l 467 326 l 467 539 l 534 539 l 534 0 l 467 0 l 467 264 l 149 264 l 149 0 z"},"4":{"x_min":0,"x_max":667,"ha":667,"o":"m 159 187 l 466 187 l 466 431 z m 466 0 l 466 124 l 56 124 l 56 187 l 466 513 l 533 513 l 533 187 l 619 187 l 619 124 l 533 124 l 533 0 z"},"~":{"x_min":0,"x_max":833,"ha":833,"o":"m 747 311 q 697 276 650 259 q 604 241 558 241 q 510 241 431 269 q 421 272 417 274 l 409 277 q 323 308 276 308 q 235 308 190 290 q 146 271 87 230 l 87 285 q 139 321 186 338 q 232 356 276 356 q 327 356 409 326 q 414 324 417 323 q 422 321 433 317 q 514 288 558 288 q 600 288 645 307 q 689 325 747 366 z"},"D":{"x_min":0,"x_max":632,"ha":632,"o":"m 312 477 l 148 477 l 148 62 l 312 62 q 412 62 469 118 q 526 174 526 269 q 526 363 468 420 q 410 477 312 477 z m 312 539 q 439 539 517 464 q 595 389 595 268 q 595 146 519 73 q 442 0 312 0 l 81 0 l 81 539 z"},"^":{"x_min":0,"x_max":1000,"ha":1000,"o":"m 534 712 l 793 440 l 723 440 l 500 662 l 276 440 l 206 440 l 466 712 z"},"0":{"x_min":0,"x_max":667,"ha":667,"o":"m 333 48 q 432 48 496 107 q 560 166 560 255 q 560 345 496 403 q 432 462 333 462 q 234 462 170 403 q 106 345 106 255 q 106 167 170 107 q 235 48 333 48 z m 333 -14 q 204 -14 120 62 q 37 139 37 255 q 37 372 121 448 q 204 525 333 525 q 462 525 546 448 q 630 372 630 255 q 630 139 546 62 q 462 -14 333 -14 z"},"F":{"x_min":0,"x_max":495,"ha":495,"o":"m 81 0 l 81 539 l 505 539 l 505 477 l 148 477 l 148 319 l 364 319 l 364 257 l 148 257 l 148 0 z"},"`":{"x_min":0,"x_max":500,"ha":500,"o":"m 266 482 l 135 653 l 209 653 l 311 482 z"},"k":{"x_min":0,"x_max":475,"ha":475,"o":"m 72 0 l 72 416 l 137 416 l 137 231 l 358 416 l 444 416 l 269 268 l 470 0 l 397 0 l 223 230 l 137 157 l 137 0 z"},"u":{"x_min":0,"x_max":556,"ha":556,"o":"m 72 416 l 137 416 l 137 149 q 137 89 166 68 q 194 47 278 47 q 362 47 391 68 q 419 89 419 149 l 419 416 l 484 416 l 484 132 q 484 55 435 21 q 387 -13 277 -13 q 167 -13 120 21 q 72 54 72 132 z"},"]":{"x_min":0,"x_max":273,"ha":273,"o":"m 218 0 l 61 0 l 61 58 l 155 58 l 155 481 l 61 481 l 61 539 l 218 539 z"},"U":{"x_min":0,"x_max":579,"ha":579,"o":"m 134 539 l 134 190 q 134 106 165 77 q 197 49 289 49 q 381 49 413 77 q 444 106 444 190 l 444 539 l 511 539 l 511 172 q 511 72 459 29 q 408 -14 289 -14 q 170 -14 119 29 q 67 72 67 172 l 67 539 z"},"o":{"x_min":0,"x_max":581,"ha":581,"o":"m 290 48 q 374 48 426 93 q 479 138 479 208 q 479 277 426 323 q 373 368 290 368 q 207 368 155 323 q 102 278 102 208 q 102 138 155 93 q 207 48 290 48 z m 290 -13 q 179 -13 107 50 q 35 113 35 208 q 35 304 107 366 q 178 428 290 428 q 403 428 474 366 q 546 304 546 208 q 546 112 474 50 q 402 -13 290 -13 z"},"N":{"x_min":0,"x_max":613,"ha":613,"o":"m 81 0 l 81 539 l 116 539 l 466 136 l 466 539 l 533 539 l 533 0 l 499 0 l 148 403 l 148 0 z"},"+":{"x_min":0,"x_max":833,"ha":833,"o":"m 441 596 l 441 322 l 709 322 l 709 274 l 441 274 l 441 0 l 393 0 l 393 274 l 124 274 l 124 322 l 393 322 l 393 596 z"},"G":{"x_min":0,"x_max":618,"ha":618,"o":"m 494 146 l 494 225 l 347 225 l 347 287 l 561 287 l 561 125 q 522 58 459 22 q 396 -14 317 -14 q 196 -14 117 66 q 38 146 38 268 q 38 391 117 471 q 196 551 317 551 q 392 551 453 518 q 515 485 553 425 l 497 385 q 472 433 424 460 q 376 488 317 488 q 226 488 167 426 q 107 363 107 268 q 107 173 167 111 q 226 49 317 49 q 374 49 418 73 q 462 98 494 146 z"},"q":{"x_min":0,"x_max":581,"ha":581,"o":"m 373 60 q 423 81 451 120 q 479 159 479 208 q 479 277 426 323 q 373 368 290 368 q 207 368 155 323 q 102 278 102 208 q 102 139 154 94 q 206 48 285 48 q 288 48 294 48 q 300 49 303 49 l 261 100 l 340 100 z m 414 12 l 471 -57 l 391 -57 l 350 -8 q 317 -11 306 -12 q 295 -13 290 -13 q 179 -13 107 50 q 35 113 35 208 q 35 304 107 366 q 178 428 290 428 q 403 428 474 366 q 546 304 546 208 q 546 144 511 93 q 477 42 414 12 z"},"d":{"x_min":0,"x_max":516,"ha":516,"o":"m 257 417 q 359 417 421 359 q 484 300 484 207 q 484 113 423 56 q 361 0 257 0 l 72 0 l 72 417 z m 258 357 l 137 357 l 137 60 l 258 60 q 332 60 375 100 q 417 140 417 208 q 417 274 373 315 q 329 357 258 357 z"},"1":{"x_min":0,"x_max":667,"ha":667,"o":"m 299 -3 l 299 515 l 367 515 l 367 -3 z"},"5":{"x_min":0,"x_max":667,"ha":667,"o":"m 81 81 l 115 138 q 183 91 237 70 q 292 49 345 49 q 418 49 466 88 q 514 127 514 184 q 514 234 465 267 q 417 300 338 300 q 292 300 250 287 q 208 275 162 248 l 120 248 l 120 513 l 535 513 l 535 450 l 187 450 l 187 336 q 230 350 267 356 q 304 363 338 363 q 448 363 516 311 q 584 258 584 176 q 584 96 515 41 q 447 -14 342 -14 q 274 -14 209 10 q 145 33 81 81 z"}}}
